<svg xmlns="http://www.w3.org/2000/svg" viewBox="0 0 306.03 306.03"><defs><style>.cls-1{fill:#211c35;}.cls-2{fill:#b39a55;}.cls-3{fill:#fbe380;}.cls-4{fill:none;stroke:#b39a55;stroke-miterlimit:10;stroke-width:6.03px;}</style></defs><g id="Layer_2" data-name="Layer 2"><g id="Layer_1-2" data-name="Layer 1"><circle class="cls-1" cx="152.97" cy="153.02" r="150"/><polygon class="cls-2" points="35.05 161.4 37.21 167.64 44.72 167.64 38.77 172.37 41.16 179.5 35.31 175.97 28.88 180.12 30.98 172.74 24.6 167.64 32.42 167.64 35.05 161.4"/><polygon class="cls-2" points="48.16 194.3 50.32 200.54 57.83 200.54 51.88 205.27 54.28 212.4 48.42 208.87 42 213.02 44.1 205.64 37.72 200.54 45.53 200.54 48.16 194.3"/><polygon class="cls-2" points="69.72 228.32 71.89 234.56 79.39 234.56 73.45 239.28 75.84 246.42 69.98 242.89 63.56 247.04 65.66 239.66 59.28 234.56 67.09 234.56 69.72 228.32"/><polygon class="cls-2" points="240.4 228.32 242.56 234.56 250.07 234.56 244.12 239.28 246.52 246.42 240.66 242.89 234.24 247.04 236.34 239.66 229.95 234.56 237.77 234.56 240.4 228.32"/><polygon class="cls-2" points="256.63 194.3 258.8 200.54 266.31 200.54 260.36 205.27 262.75 212.4 256.9 208.87 250.47 213.02 252.57 205.64 246.19 200.54 254.01 200.54 256.63 194.3"/><polygon class="cls-2" points="270.6 161.4 272.76 167.64 280.27 167.64 274.32 172.37 276.71 179.5 270.86 175.97 264.43 180.12 266.53 172.74 260.15 167.64 267.97 167.64 270.6 161.4"/><path class="cls-2" d="M43.31,135.82a7.78,7.78,0,0,1-2,2.46l-2.12-1.51A8,8,0,0,0,41,134.6a9,9,0,0,0,1.09-2.78,5.17,5.17,0,0,0,0-2.8,1.77,1.77,0,0,0-1.34-1.19,1.47,1.47,0,0,0-1.24.26,3.51,3.51,0,0,0-1,1.11q-.41.7-1,2a27,27,0,0,1-1.48,2.8,5.09,5.09,0,0,1-1.77,1.68,3.79,3.79,0,0,1-2.69.31,4.39,4.39,0,0,1-2.28-1.22A5,5,0,0,1,28,132.18a9,9,0,0,1,.09-3.71,11.71,11.71,0,0,1,.95-2.82,8.3,8.3,0,0,1,1.56-2.25l2.13,1.42a9.75,9.75,0,0,0-1.39,2,8.31,8.31,0,0,0-.77,2.17,4.67,4.67,0,0,0,.06,2.75,1.87,1.87,0,0,0,1.41,1.19,1.48,1.48,0,0,0,1.23-.26,3.76,3.76,0,0,0,.94-1.12c.27-.47.61-1.12,1-1.95a22,22,0,0,1,1.46-2.77,5,5,0,0,1,1.77-1.69,3.69,3.69,0,0,1,2.65-.31,4.36,4.36,0,0,1,2.27,1.22,5.06,5.06,0,0,1,1.28,2.54,9.25,9.25,0,0,1-.09,3.72A12.4,12.4,0,0,1,43.31,135.82Z"/><path class="cls-2" d="M48,110.87l2.42.84-4,11.64L30.87,118l3.94-11.33,2.42.84-2.94,8.45,4,1.4,2.61-7.49,2.37.82-2.6,7.5L45,119.62Z"/><path class="cls-2" d="M52.23,106a8,8,0,0,1-4.12,1.41,8.83,8.83,0,0,1-7.71-4,8.18,8.18,0,0,1-1.22-4.19,9.9,9.9,0,0,1,3.42-7.44,7.44,7.44,0,0,1,3.11-1.56l.73,2.6a5.77,5.77,0,0,0-3.72,3,6.11,6.11,0,0,0-.74,3,5.33,5.33,0,0,0,.86,2.8,5.94,5.94,0,0,0,2.3,2,5.85,5.85,0,0,0,3,.7,5.29,5.29,0,0,0,2.78-.91,6.09,6.09,0,0,0,2-2.34,5.72,5.72,0,0,0,.29-4.8l2.57-.88a7.59,7.59,0,0,1,.52,3.45,9.43,9.43,0,0,1-1.08,3.6A9.09,9.09,0,0,1,52.23,106Z"/><path class="cls-2" d="M59,92.33a7.41,7.41,0,0,1-5.54-1.71L46,85.14l1.8-2.46,7.39,5.41q3.9,2.86,6.37-.51t-1.45-6.21L52.69,76l1.77-2.43L61.94,79a7.52,7.52,0,0,1,3.31,4.77A8.31,8.31,0,0,1,59,92.33Z"/><path class="cls-2" d="M77.78,72.91l-5.78-1a4.73,4.73,0,0,1-.43.47L68.94,75l3.38,3.4L70.16,80.5,58.57,68.86l4.78-4.77A9,9,0,0,1,66.49,62a5.36,5.36,0,0,1,3.14-.28,5.69,5.69,0,0,1,2.81,1.61,5.57,5.57,0,0,1,1.61,2.9,5.41,5.41,0,0,1-.43,3.25l6.49,1.15Zm-10-8.43A4.68,4.68,0,0,0,65.08,66l-2.53,2.52,4.62,4.64,2.53-2.52a4.65,4.65,0,0,0,1.54-2.75,3,3,0,0,0-1-2.45A3,3,0,0,0,67.82,64.48Z"/><path class="cls-2" d="M72.06,56.22l2.38-1.91L84.72,67.12,82.34,69Z"/><path class="cls-2" d="M83.08,51.2l-4.55,3L77.11,52l11.65-7.67,1.42,2.16-4.55,3,7.62,11.57L90.7,62.77Z"/><path class="cls-2" d="M103,49.06l2.55,5.21-2.75,1.34-2.52-5.17-10.5-6.76,2.94-1.43,7.84,5.08.84-9.33,2.7-1.32Z"/><path class="cls-2" d="M130.64,46l-2.5-1.4A8.23,8.23,0,0,1,123.31,48a7.86,7.86,0,0,1-3.12.23,5,5,0,0,1-2.46-1,3.62,3.62,0,0,1-1.33-2,4.25,4.25,0,0,1,.18-2.82,9.49,9.49,0,0,1,2.23-3A7.17,7.17,0,0,1,117,38a4,4,0,0,1-.86-1.61,3.45,3.45,0,0,1,.55-3,5.24,5.24,0,0,1,3.08-1.91,4.85,4.85,0,0,1,3.33.13,3.19,3.19,0,0,1,1.83,2.25,3.49,3.49,0,0,1-.19,2.38,8.93,8.93,0,0,1-2,2.58L127,41.17a10.29,10.29,0,0,0,.18-2.91l2.49.14a11.31,11.31,0,0,1-.47,4l2.5,1.38ZM118.92,34.33a1.59,1.59,0,0,0-.22,1.36,1.92,1.92,0,0,0,.57,1,7.58,7.58,0,0,0,1.48,1,8.67,8.67,0,0,0,1.55-1.8,1.81,1.81,0,0,0,.22-1.36,1.48,1.48,0,0,0-.78-1,2.11,2.11,0,0,0-1.46-.05A2.28,2.28,0,0,0,118.92,34.33ZM126,43.47l-5.26-2.92a6.68,6.68,0,0,0-1.54,2,2.51,2.51,0,0,0-.15,1.7,1.94,1.94,0,0,0,1.31,1.38,4.23,4.23,0,0,0,2.5,0A5.52,5.52,0,0,0,126,43.47Z"/><path class="cls-2" d="M139,28.05l3-.29,1.56,16.35-3,.29Z"/><path class="cls-2" d="M162.5,27.48l-.32,16.43-2.51,0-8.85-11.29-.21,11.12-3,0,.32-16.43,2.51,0,8.85,11.3.21-11.12Z"/><path class="cls-2" d="M171.57,31.31l-5.37-.88.41-2.55,13.76,2.26L180,32.69l-5.37-.88-2.25,13.66-3-.49Z"/><path class="cls-2" d="M192,48l-.74,2.44-11.8-3.57,4.77-15.72,11.48,3.47L194.93,37l-8.56-2.59-1.24,4.09,7.59,2.3-.73,2.4-7.59-2.3-1.31,4.34Z"/><path class="cls-2" d="M200.68,36.58l2.78,1.26-5.71,12.62L205.58,54l-1.07,2.35-10.61-4.8Z"/><path class="cls-2" d="M214.73,43.35l2.61,1.59-7.22,11.82,7.34,4.47-1.35,2.21-9.94-6.07Z"/><path class="cls-2" d="M227.51,51.63,230,53.46l-9.83,13.16-2.45-1.83Z"/><path class="cls-2" d="M237.31,70.51l2.1,2-4.47,4.78a9,9,0,0,1-3.22-.89,11.52,11.52,0,0,1-2.91-2,9.38,9.38,0,0,1-2.55-3.9,8,8,0,0,1-.25-4.37A8.77,8.77,0,0,1,232,59.79a8.14,8.14,0,0,1,4.38,0,9.47,9.47,0,0,1,4.08,2.33,9.9,9.9,0,0,1,2.27,3.07,7.36,7.36,0,0,1,.71,3.39l-2.69.06a6.19,6.19,0,0,0-2-4.47,6.37,6.37,0,0,0-2.75-1.58,5.34,5.34,0,0,0-2.94,0,5.87,5.87,0,0,0-2.61,1.67A5.73,5.73,0,0,0,228.92,67a5.48,5.48,0,0,0,.12,3,6.24,6.24,0,0,0,1.72,2.65,6.61,6.61,0,0,0,3.05,1.69Z"/><path class="cls-2" d="M245.58,89.3l-2,1.59-7.66-9.66L248.79,71l7.46,9.4-2,1.59-5.56-7-3.34,2.66,4.93,6.21-2,1.56-4.93-6.21L239.82,82Z"/><path class="cls-2" d="M266.72,97.72l-14.27,8.16-1.24-2.18,5.16-13.39-9.66,5.52-1.5-2.63,14.26-8.15,1.25,2.18-5.16,13.39,9.66-5.53Z"/><path class="cls-2" d="M255.91,112a8.07,8.07,0,0,1,1.71-4,8.82,8.82,0,0,1,8.13-3.06,8.27,8.27,0,0,1,3.94,1.89,9.31,9.31,0,0,1,2.61,3.82,9.42,9.42,0,0,1,.64,3.7,7.58,7.58,0,0,1-.91,3.35l-2.44-1.19a5.71,5.71,0,0,0,.25-4.78,6,6,0,0,0-1.76-2.57,5.3,5.3,0,0,0-2.66-1.23,5.91,5.91,0,0,0-3.05.35,6,6,0,0,0-2.53,1.75,5.42,5.42,0,0,0-1.18,2.68,6.23,6.23,0,0,0,.38,3.1,5.75,5.75,0,0,0,3.37,3.42l-1.06,2.5a7.55,7.55,0,0,1-2.91-1.92,9.42,9.42,0,0,1-2-3.21A9.18,9.18,0,0,1,255.91,112Z"/><path class="cls-2" d="M264.69,136.39l-2.5.55-2.66-12,16.05-3.54,2.58,11.72-2.49.55-1.93-8.73-4.17.92,1.71,7.74-2.46.54-1.71-7.74-4.42,1Z"/><path class="cls-2" d="M213.59,117.53c5.74-.39,10.73-2,14.65-6.11,5.94-6.19,6.14-13.32,4.87-21a.36.36,0,0,0-.67-.09c-5.95,13.19-15.24,22.45-30,23.91a.36.36,0,0,0-.3.27,10.35,10.35,0,0,1-1.71,4.14c-3.88,5-12.89,3.4-12.65-5,0-8.17,6.85-16.82,15.78-18.6a18.38,18.38,0,0,1,9.9.67.35.35,0,0,0,.47-.3c.2-3.22-.15-5.43-3.4-7a10.62,10.62,0,0,0-8.17,0,.36.36,0,0,1-.4-.11c-3.42-4.22-11.25-3.83-17.26-1.9a20.14,20.14,0,0,0-5.56,2.77.35.35,0,0,0,.08.61c4.58,1.81,1.21,8.21-4,8.38a.37.37,0,0,0-.35.35c-.3,10.74-11.3,14.4-19.15,14.43l-.57,0-.57,0c-7.85,0-18.84-3.69-19.14-14.43a.37.37,0,0,0-.35-.35c-5.25-.17-8.62-6.57-4-8.38a.35.35,0,0,0,.07-.61,20.21,20.21,0,0,0-5.55-2.77c-6-1.93-13.84-2.32-17.27,1.9a.34.34,0,0,1-.39.11,12.28,12.28,0,0,0-5.12-.82c-1.87,1-3.75,1.91-5.63,2.85-.86,1.3-1,2.91-.82,4.9a.35.35,0,0,0,.47.3,18.34,18.34,0,0,1,9.89-.67c8.94,1.78,15.77,10.43,15.79,18.6.24,8.41-8.77,10-12.66,5a10.34,10.34,0,0,1-1.7-4.14.38.38,0,0,0-.31-.27c-11.43-1.13-19.58-7-25.44-15.67-1.09.65-2.17,1.3-3.25,2-.55,1.11-1.1,2.22-1.64,3.34A18.91,18.91,0,0,0,82,111.42c3.92,4.08,8.9,5.72,14.64,6.11a.35.35,0,0,1,.1.68c-5.7,2.12-10.65.43-15.9-2.16a.35.35,0,0,0-.5.36,35.06,35.06,0,0,0,4.84,12.35c.76,1.08,1.39,1.73,2.12,1.72,5.79-.09,10.06-.92,15.09-4a.35.35,0,0,1,.47.49c-5.79,8.54-12,10.08-17.78,9.76a.35.35,0,0,0-.29.57c3.45,4.36,6.24,6.53,9.15,7.69a14.81,14.81,0,0,0,13.72-1.19.35.35,0,0,1,.47.49,16,16,0,0,1-18.78,5.76.35.35,0,0,0-.44.48c5.23,10.89,13,11,23.06,8.37a.35.35,0,0,1,.33.59c-3.84,3.61-10.62,6.82-15.71,5.54a.35.35,0,0,0-.36.55c5.32,7.14,12.84,8.58,19.44,5.81a.35.35,0,0,1,.42.53c-2.93,3.76-8.5,7.53-13.86,7.33a.35.35,0,0,0-.28.57c4.74,5.92,10.91,6.39,17.23,4.27a.35.35,0,0,1,.4.52,17.81,17.81,0,0,1-11.76,7,.36.36,0,0,0-.19.62c3.69,3.18,9.09,3.48,13.82,3a.35.35,0,0,1,.16.68l-2.49.93c-3.43,1.27-5,1.48-5.2,2.71-.2,1,.93,4.3,1.64,6.33.43,1.27,1,1.34,1.93,1.15a37.81,37.81,0,0,0,10.77-4.32.35.35,0,0,1,.46.49c-1.54,2.4-5.79,4.62-8.68,6.08-1.46.73-1.4.81-.88,1.87A9.73,9.73,0,0,0,122,215a9.92,9.92,0,0,0,6.18,1.93,9.08,9.08,0,0,0,6-2.14,11.52,11.52,0,0,0,2.17-2.47s0,0,0-.05c.19-.41,1.12-2.31.69-.45a9.45,9.45,0,0,1-1.23,2.63,21.09,21.09,0,0,1-4.4,4.72c-1.27,1-.75,1,.55,2.24l1,.94,0,0c2.92,2.26,5.25,3.73,7.8,3.12a5.16,5.16,0,0,0,3-2.06c1.49-2,2.65-5.25,3.63-7.86a.35.35,0,0,1,.68.09,6.18,6.18,0,0,1-.13,1.48c-.36,1.89-2.83,6.44-2.82,8.81,0,1,.51.89,1.47,1.19a39.6,39.6,0,0,0,8.54,1.2h0a39.6,39.6,0,0,0,8.54-1.2c1-.3,1.46-.15,1.46-1.19,0-2.37-2.46-6.92-2.82-8.81a6.13,6.13,0,0,1-.12-1.48.35.35,0,0,1,.67-.09c1,2.61,2.14,5.86,3.64,7.86a5.14,5.14,0,0,0,3,2.06c2.55.61,4.89-.86,7.8-3.12l0,0,1-.94c1.31-1.28,1.83-1.21.55-2.24a21.27,21.27,0,0,1-4.39-4.72,8.91,8.91,0,0,1-1.23-2.63c-.44-1.86.5,0,.69.45,0,0,0,0,0,.05a11,11,0,0,0,2.17,2.47,9.06,9.06,0,0,0,6,2.14,9.88,9.88,0,0,0,6.17-1.93,9.64,9.64,0,0,0,2.83-3.83c.51-1.06.58-1.14-.88-1.87-2.89-1.46-7.14-3.68-8.69-6.08a.35.35,0,0,1,.47-.49A37.87,37.87,0,0,0,192.74,207c.95.19,1.5.12,1.94-1.15.7-2,1.83-5.34,1.64-6.33-.24-1.23-1.78-1.44-5.2-2.71l-2.5-.93a.35.35,0,0,1,.16-.68c4.74.51,10.13.21,13.82-3a.35.35,0,0,0-.18-.62,17.83,17.83,0,0,1-11.77-7,.35.35,0,0,1,.41-.52c6.31,2.12,12.48,1.65,17.23-4.27a.35.35,0,0,0-.29-.57c-5.36.2-10.92-3.57-13.86-7.33a.35.35,0,0,1,.42-.53c6.6,2.77,14.13,1.33,19.45-5.81a.35.35,0,0,0-.36-.55c-5.09,1.28-11.87-1.93-15.72-5.54a.35.35,0,0,1,.33-.59c10,2.62,17.83,2.52,23.07-8.37a.35.35,0,0,0-.44-.48,16,16,0,0,1-18.79-5.76.35.35,0,0,1,.47-.49A14.81,14.81,0,0,0,216.29,145c2.91-1.16,5.71-3.33,9.15-7.69a.35.35,0,0,0-.29-.57c-5.74.32-12-1.22-17.77-9.76a.35.35,0,0,1,.47-.49c5,3,9.3,3.88,15.08,4,.73,0,1.37-.64,2.12-1.72a34.87,34.87,0,0,0,4.84-12.35.34.34,0,0,0-.5-.36c-5.25,2.59-10.2,4.28-15.9,2.16A.35.35,0,0,1,213.59,117.53Z"/><path class="cls-3" d="M178.49,203.64l2.52-1.21-.06,0-1.56-.62c-.15.33-.31.67-.48,1Zm-46.31,0-.45-.91c-.18-.35-.34-.7-.51-1.05l-.94.38-.84.34Z"/><path class="cls-1" d="M141.2,131.84c.08,0,.12,0,.12.11v25.24c0,.07,0,.11-.12.11h-7.74c-.08,0-.12,0-.12-.11V132a.11.11,0,0,1,.12-.11Z"/><path class="cls-1" d="M173.15,131.84c.08,0,.13,0,.13.13v25.22c0,.07-.05.11-.13.11H143.22c-.08,0-.12,0-.12-.11V132c0-.09.05-.13.12-.13Zm-22.36,18.52h14.8V138.8h-14.8Z"/><path class="cls-1" d="M163.39,158.86c.08,0,.12,0,.12.11v6.73c0,.07,0,.1-.12.1H141v2.28h22.37q.12,0,.12.12v16c0,.07,0,.11-.12.11H133.46c-.08,0-.12,0-.12-.11v-6.72a.11.11,0,0,1,.12-.11h22.37v-2.29H133.46c-.08,0-.12,0-.12-.11V159a.11.11,0,0,1,.12-.11Z"/><path class="cls-1" d="M173.15,158.86c.09,0,.13,0,.13.11v25.24c0,.07,0,.11-.13.11h-7.74c-.08,0-.12,0-.12-.11V159a.11.11,0,0,1,.12-.11Z"/><path class="cls-1" d="M154.91,124h2.37l-1.92,1.28.74,2.22L154.17,126l-1.92,1.36.73-2.13L151.06,124h2.38l.73-2.26Zm-8.7-2.26-.73,2.26H143.1l1.93,1.28-.74,2.2,1.92-1.42,1.93,1.38-.74-2.15,1.93-1.29H147Zm-8,0-.74,2.26h-2.38l1.93,1.28-.74,2.2,1.93-1.42,1.92,1.38-.73-2.15,1.92-1.29H139Z"/><path class="cls-1" d="M170.16,121.71l-.73,2.26h-2.38l1.92,1.28-.73,2.2,1.92-1.42,1.93,1.38-.74-2.15,1.93-1.29H170.9Zm-7.95,0-.74,2.26h-2.38l1.93,1.28-.74,2.2,1.93-1.42,1.92,1.38-.73-2.15,1.92-1.29h-2.38Z"/><circle class="cls-4" cx="153.02" cy="153.02" r="150"/><path class="cls-2" d="M103,265.94a7.45,7.45,0,0,1-2-2.34l1.84-1.78a8.35,8.35,0,0,0,1.79,2.1,8.8,8.8,0,0,0,2.51,1.55,5,5,0,0,0,2.72.47,1.73,1.73,0,0,0,1.4-1.08,1.51,1.51,0,0,0,0-1.25,3.52,3.52,0,0,0-.91-1.13c-.41-.35-1-.79-1.72-1.32a25.72,25.72,0,0,1-2.45-1.93,4.88,4.88,0,0,1-1.31-2,3.72,3.72,0,0,1,.18-2.66,4.3,4.3,0,0,1,1.6-2,4.86,4.86,0,0,1,2.69-.8,8.87,8.87,0,0,1,3.59.74,11.52,11.52,0,0,1,2.56,1.44,8,8,0,0,1,1.9,1.91l-1.75,1.82a9.23,9.23,0,0,0-1.71-1.71,8.58,8.58,0,0,0-2-1.15,4.8,4.8,0,0,0-2.69-.43,1.85,1.85,0,0,0-1.4,1.16,1.45,1.45,0,0,0,0,1.24,3.61,3.61,0,0,0,.92,1.11q.61.53,1.71,1.32a21.05,21.05,0,0,1,2.43,1.92,5.14,5.14,0,0,1,1.32,2,3.61,3.61,0,0,1-.17,2.62,4.23,4.23,0,0,1-1.59,2,4.94,4.94,0,0,1-2.7.78,9.08,9.08,0,0,1-3.6-.75A12.31,12.31,0,0,1,103,265.94Z"/><path class="cls-2" d="M128.76,271.9l-.63,2.44-11.78-3,4.06-15.7,11.46,3-.63,2.44-8.55-2.2-1,4.08,7.58,2-.62,2.4-7.58-2-1.12,4.33Z"/><path class="cls-2" d="M143.37,276.37l-2.76-5.09c-.14,0-.35,0-.62,0l-3.64-.41-.53,4.7-3-.33,1.81-16.12,6.63.74a9.09,9.09,0,0,1,3.57,1.1,5.3,5.3,0,0,1,2.16,2.25,6,6,0,0,1-.75,6.19,5.32,5.32,0,0,1-2.77,1.67l3.12,5.71Zm.35-12.88a4.56,4.56,0,0,0-2.87-1.16l-3.5-.39-.73,6.42,3.5.39a4.6,4.6,0,0,0,3.07-.5,3,3,0,0,0,1.28-2.27A2.88,2.88,0,0,0,143.72,263.49Z"/><path class="cls-2" d="M165.39,260.13l-6.54,16.43-3,.1-7.61-16,3.27-.1,5.79,12.33,5-12.68Z"/><path class="cls-2" d="M166.4,259.69l3-.4,2.15,16.08-3,.4Z"/><path class="cls-2" d="M179.67,273.07a8,8,0,0,1-3.71-2.16,8.34,8.34,0,0,1-2.11-3.9,8.24,8.24,0,0,1,.1-4.44,7.9,7.9,0,0,1,2.33-3.62,9.13,9.13,0,0,1,4.05-2.1,9.36,9.36,0,0,1,3.7-.18,7.34,7.34,0,0,1,3.18,1.31l-1.46,2.23a5.67,5.67,0,0,0-4.66-.82,6,6,0,0,0-2.73,1.41,5.3,5.3,0,0,0-1.53,2.46,5.76,5.76,0,0,0,0,3,5.82,5.82,0,0,0,1.42,2.69,5.22,5.22,0,0,0,2.48,1.48,6.06,6.06,0,0,0,3.08,0,5.65,5.65,0,0,0,3.75-2.89l2.33,1.34a7.32,7.32,0,0,1-2.24,2.62,9.25,9.25,0,0,1-3.38,1.53A9.07,9.07,0,0,1,179.67,273.07Z"/><path class="cls-2" d="M204.87,263l.93,2.35-11.3,4.49-6-15.07,11-4.37.94,2.34-8.21,3.27,1.56,3.92,7.28-2.9.92,2.3-7.28,2.9,1.65,4.15Z"/><path class="cls-1" d="M126.83,207.76c10-4.09,17.6-6.27,25.13-6.45S167,203,177,206.88h0l.06,0,1.54.61.67.27c.3-.7.63-1.47,1-2.34s.7-1.64,1-2.41l.1-.23,0-.05v0l0,0v-.09l0,0,.51-1.18,1.32-3.11c-10.76-4.91-20.58-7.36-30.4-7.35s-19.65,2.45-30.42,7.35c.72,1.58,1.43,3.15,2.14,4.73Z"/><path class="cls-2" d="M140,199.73a2.74,2.74,0,0,1-1.54,1.44,2.6,2.6,0,0,1-1.13.15,3.08,3.08,0,0,1-1.07-.28,3.2,3.2,0,0,1-.92-.63,2.6,2.6,0,0,1-.62-.89,2.73,2.73,0,0,1-.23-1.09,2.76,2.76,0,0,1,.89-2.05,3,3,0,0,1,1.08-.66,3.78,3.78,0,0,1,.87-.21,2.73,2.73,0,0,1,.76,0,2.29,2.29,0,0,1,.64.21,2.35,2.35,0,0,1,.52.37l-.39.42a1.88,1.88,0,0,0-1-.48,2.55,2.55,0,0,0-1.2.15,2.2,2.2,0,0,0-.86.53,2.18,2.18,0,0,0-.65,1.67,2.21,2.21,0,0,0,.19.88,2.49,2.49,0,0,0,2.12,1.52,2.18,2.18,0,0,0,.91-.12,2.37,2.37,0,0,0,.85-.54,3.21,3.21,0,0,0,.64-1l-.29-.92-1.31.44c-.05-.17-.08-.25-.14-.42.73-.25,1.1-.37,1.83-.59.33,1.08.49,1.62.81,2.7l-.48.14c-.09-.31-.14-.47-.24-.79"/><path class="cls-2" d="M142.73,199.83c-.56-2.22-.83-3.33-1.39-5.55l.63-.16,1.2,5.09c1.34-.32,2-.45,3.38-.67,0,.2,0,.3.08.5a35,35,0,0,0-3.9.79"/><path class="cls-2" d="M150.34,198.65a2.65,2.65,0,0,1-1.13-.15,2.84,2.84,0,0,1-1-.56,3.1,3.1,0,0,1-1-1.88,2.64,2.64,0,0,1,.09-1.12,2.74,2.74,0,0,1,.52-1,2.95,2.95,0,0,1,2.1-1.08,2.91,2.91,0,0,1,2.27.81,2.86,2.86,0,0,1,.63.91,2.65,2.65,0,0,1,.22,1.06,2.75,2.75,0,0,1-.2,1.1,3.14,3.14,0,0,1-1.43,1.61,2.8,2.8,0,0,1-1.08.3M147.83,196a2.4,2.4,0,0,0,.28.87,2.52,2.52,0,0,0,.54.71,2.41,2.41,0,0,0,.75.46,2,2,0,0,0,.91.12,2,2,0,0,0,.89-.26,2.55,2.55,0,0,0,.68-.58,2.66,2.66,0,0,0,.42-.78,2.46,2.46,0,0,0-.05-1.77,2.59,2.59,0,0,0-.52-.75,2.4,2.4,0,0,0-.78-.49,2.29,2.29,0,0,0-1-.14,2.39,2.39,0,0,0-1,.29,2.22,2.22,0,0,0-.7.62,2.31,2.31,0,0,0-.38.81,2.44,2.44,0,0,0-.07.89"/><path class="cls-2" d="M159.6,197.42a1.4,1.4,0,0,1-.21.57,2.09,2.09,0,0,1-.42.42,1.7,1.7,0,0,1-.55.24,2,2,0,0,1-.65,0c-1.1-.1-1.65-.14-2.75-.17.08-2.29.12-3.44.19-5.73,1.27.05,1.9.09,3.17.21a1.51,1.51,0,0,1,.61.19,1.79,1.79,0,0,1,.43.39,1.54,1.54,0,0,1,.24.5,1.46,1.46,0,0,1-.3,1.29,1.52,1.52,0,0,1-.72.46,1.46,1.46,0,0,1,1,1.59m-3.77-4.11-.1,2.11c.86,0,1.29.07,2.15.15a1.09,1.09,0,0,0,.44,0,1,1,0,0,0,.37-.2,1.08,1.08,0,0,0,.26-.3.89.89,0,0,0,.12-.39,1,1,0,0,0,0-.42.78.78,0,0,0-.18-.35.86.86,0,0,0-.31-.26,1,1,0,0,0-.42-.13c-.92-.08-1.38-.12-2.3-.16m3.19,3.94a1.49,1.49,0,0,0,0-.42,1.16,1.16,0,0,0-.18-.37,1.38,1.38,0,0,0-.31-.28,1,1,0,0,0-.42-.13c-.94-.09-1.42-.13-2.37-.17l-.1,2.17c.89,0,1.33.07,2.21.15a1,1,0,0,0,.43,0,1.2,1.2,0,0,0,.37-.2,1.35,1.35,0,0,0,.26-.32,1.14,1.14,0,0,0,.14-.39"/><path class="cls-2" d="M160.6,199.05a53.27,53.27,0,0,1,3.63-5.14l.52.12a51.76,51.76,0,0,1,1.12,6.2l-.6-.17c-.11-.77-.17-1.16-.3-1.93-1.07-.27-1.61-.39-2.69-.6-.44.65-.66,1-1.08,1.62l-.6-.1m3.75-4.43c-.77,1-1.14,1.49-1.86,2.5,1,.19,1.48.3,2.45.55-.2-1.22-.32-1.83-.59-3"/><path class="cls-2" d="M167.48,200.73c.72-2.18,1.08-3.27,1.79-5.44l.62.2-1.7,4.95c1.31.45,2,.7,3.25,1.26l-.2.45a37.14,37.14,0,0,0-3.76-1.42"/></g></g></svg>