<svg xmlns="http://www.w3.org/2000/svg" viewBox="0 0 220.47 220.47"><defs><style>.a9294399-12cf-4f52-8b68-79d29eaa6374{fill:#211c35;}.b6a7815d-21e8-4b4c-b6fd-280c6d6edea1{fill:#b39a55;}.f84163bc-5015-44be-9934-ffa9ce8b52fa{fill:#fbe380;}.bf6e9c2f-929c-496f-bf15-cecde81ae8b7{fill:none;stroke:#b39a55;stroke-miterlimit:10;stroke-width:4.21px;}</style></defs><g id="f2539d62-44d3-49b8-b836-adb8e86b9fa2" data-name="Layer 2"><g id="aede61d2-ec71-45d6-938f-72a612c2a917" data-name="Layer 1"><circle class="a9294399-12cf-4f52-8b68-79d29eaa6374" cx="110.23" cy="110.23" r="110.23"></circle><polygon class="b6a7815d-21e8-4b4c-b6fd-280c6d6edea1" points="23.57 116.39 25.16 120.98 30.68 120.98 26.31 124.45 28.07 129.7 23.76 127.1 19.04 130.15 20.59 124.73 15.89 120.98 21.64 120.98 23.57 116.39"></polygon><polygon class="b6a7815d-21e8-4b4c-b6fd-280c6d6edea1" points="33.21 140.57 34.8 145.16 40.32 145.16 35.95 148.64 37.7 153.88 33.4 151.28 28.68 154.33 30.22 148.91 25.53 145.16 31.28 145.16 33.21 140.57"></polygon><polygon class="b6a7815d-21e8-4b4c-b6fd-280c6d6edea1" points="49.05 165.57 50.64 170.16 56.16 170.16 51.79 173.63 53.55 178.87 49.25 176.28 44.52 179.33 46.07 173.91 41.38 170.16 47.12 170.16 49.05 165.57"></polygon><polygon class="b6a7815d-21e8-4b4c-b6fd-280c6d6edea1" points="174.48 165.57 176.07 170.16 181.59 170.16 177.22 173.63 178.98 178.87 174.68 176.28 169.95 179.33 171.5 173.91 166.81 170.16 172.55 170.16 174.48 165.57"></polygon><polygon class="b6a7815d-21e8-4b4c-b6fd-280c6d6edea1" points="186.42 140.57 188 145.16 193.52 145.16 189.15 148.64 190.91 153.88 186.61 151.28 181.88 154.33 183.43 148.91 178.74 145.16 184.48 145.16 186.42 140.57"></polygon><polygon class="b6a7815d-21e8-4b4c-b6fd-280c6d6edea1" points="196.68 116.39 198.27 120.98 203.78 120.98 199.41 124.45 201.17 129.7 196.87 127.1 192.15 130.15 193.69 124.73 189 120.98 194.75 120.98 196.68 116.39"></polygon><path class="b6a7815d-21e8-4b4c-b6fd-280c6d6edea1" d="M29.64,97.59A5.47,5.47,0,0,1,28.2,99.4l-1.55-1.1A6.25,6.25,0,0,0,28,96.7a6.54,6.54,0,0,0,.79-2,3.78,3.78,0,0,0,0-2.06,1.32,1.32,0,0,0-1-.88,1.09,1.09,0,0,0-.91.2,2.58,2.58,0,0,0-.71.81c-.2.35-.44.83-.73,1.44a18.44,18.44,0,0,1-1.09,2.06A3.71,3.71,0,0,1,23,97.46a2.76,2.76,0,0,1-2,.22,3.21,3.21,0,0,1-1.67-.89,3.66,3.66,0,0,1-.95-1.87,6.63,6.63,0,0,1,.06-2.72,8.94,8.94,0,0,1,.7-2.08,6.27,6.27,0,0,1,1.15-1.65l1.57,1a7,7,0,0,0-1,1.48,6.55,6.55,0,0,0-.57,1.6,3.51,3.51,0,0,0,.05,2,1.37,1.37,0,0,0,1,.87,1.07,1.07,0,0,0,.9-.19,2.71,2.71,0,0,0,.69-.82c.2-.35.45-.83.73-1.44a17.23,17.23,0,0,1,1.08-2,3.76,3.76,0,0,1,1.3-1.24,2.68,2.68,0,0,1,2-.23,3.14,3.14,0,0,1,1.66.89,3.69,3.69,0,0,1,.94,1.87A6.72,6.72,0,0,1,30.57,95,9.33,9.33,0,0,1,29.64,97.59Z"></path><path class="b6a7815d-21e8-4b4c-b6fd-280c6d6edea1" d="M33.11,79.26l1.77.62-3,8.55-11.41-4,2.9-8.32,1.77.62L23,83l3,1,1.91-5.51,1.75.6L27.72,84.6l3.15,1.1Z"></path><path class="b6a7815d-21e8-4b4c-b6fd-280c6d6edea1" d="M36.2,75.68a5.9,5.9,0,0,1-3,1A6.13,6.13,0,0,1,30,76a6,6,0,0,1-3.34-5.3,6.7,6.7,0,0,1,.8-3.3,7,7,0,0,1,1.71-2.17,5.58,5.58,0,0,1,2.28-1.14L32,66a4.21,4.21,0,0,0-2.74,2.21,4.56,4.56,0,0,0-.54,2.23,4,4,0,0,0,.63,2.06,4.58,4.58,0,0,0,3.89,2,3.91,3.91,0,0,0,2.05-.67,4.51,4.51,0,0,0,1.5-1.72A4.21,4.21,0,0,0,37,68.59l1.89-.66a5.47,5.47,0,0,1,.37,2.54,6.83,6.83,0,0,1-.79,2.65A6.72,6.72,0,0,1,36.2,75.68Z"></path><path class="b6a7815d-21e8-4b4c-b6fd-280c6d6edea1" d="M41.16,65.64a5.47,5.47,0,0,1-4.07-1.26l-5.5-4,1.32-1.8,5.43,4q2.86,2.1,4.68-.37c1.21-1.65.85-3.17-1.06-4.57l-5.43-4,1.31-1.79,5.5,4a5.46,5.46,0,0,1,2.42,3.5,6.1,6.1,0,0,1-4.6,6.29Z"></path><path class="b6a7815d-21e8-4b4c-b6fd-280c6d6edea1" d="M55,51.37l-4.24-.77a2.9,2.9,0,0,1-.32.34l-1.93,1.93L51,55.36l-1.59,1.58-8.53-8.55,3.52-3.51a6.65,6.65,0,0,1,2.31-1.56A4,4,0,0,1,49,43.11a4.12,4.12,0,0,1,2.06,1.19,4.07,4.07,0,0,1,1.18,2.13,3.93,3.93,0,0,1-.31,2.38l4.77.85Zm-7.32-6.2a3.41,3.41,0,0,0-2,1.13l-1.86,1.85,3.4,3.41L49,49.71a3.4,3.4,0,0,0,1.13-2,2.46,2.46,0,0,0-2.52-2.52Z"></path><path class="b6a7815d-21e8-4b4c-b6fd-280c6d6edea1" d="M50.77,39.1l1.75-1.41,7.56,9.42-1.75,1.4Z"></path><path class="b6a7815d-21e8-4b4c-b6fd-280c6d6edea1" d="M58.87,35.41l-3.34,2.2L54.48,36,63,30.39,64.09,32l-3.35,2.2,5.6,8.5-1.87,1.23Z"></path><path class="b6a7815d-21e8-4b4c-b6fd-280c6d6edea1" d="M73.54,33.84l1.87,3.83-2,1-1.85-3.8-7.71-5L66,28.83l5.76,3.73.63-6.85,2-1Z"></path><path class="b6a7815d-21e8-4b4c-b6fd-280c6d6edea1" d="M93.83,31.62l-1.85-1A6,6,0,0,1,88.43,33a5.86,5.86,0,0,1-2.29.17,3.66,3.66,0,0,1-1.81-.71,2.62,2.62,0,0,1-1-1.46,3.15,3.15,0,0,1,.13-2.08,7,7,0,0,1,1.64-2.17,5.19,5.19,0,0,1-1.35-1.05,3,3,0,0,1-.63-1.18,2.53,2.53,0,0,1,.41-2.23,3.85,3.85,0,0,1,2.26-1.41,3.55,3.55,0,0,1,2.45.1,2.36,2.36,0,0,1,1.34,1.65,2.58,2.58,0,0,1-.14,1.75A6.55,6.55,0,0,1,88,26.3L91.17,28a7.62,7.62,0,0,0,.13-2.14l1.83.1A8.12,8.12,0,0,1,92.78,29l1.84,1ZM85.21,23a1.17,1.17,0,0,0-.16,1,1.51,1.51,0,0,0,.41.7,6,6,0,0,0,1.09.76,6.06,6.06,0,0,0,1.14-1.33,1.28,1.28,0,0,0,.16-1,1,1,0,0,0-.57-.72,1.48,1.48,0,0,0-1.07,0A1.67,1.67,0,0,0,85.21,23Zm5.23,6.72-3.86-2.14A4.92,4.92,0,0,0,85.44,29a1.8,1.8,0,0,0-.1,1.25,1.41,1.41,0,0,0,1,1,3,3,0,0,0,1.83,0A4.06,4.06,0,0,0,90.44,29.73Z"></path><path class="b6a7815d-21e8-4b4c-b6fd-280c6d6edea1" d="M100,18.39l2.23-.21,1.15,12-2.23.22Z"></path><path class="b6a7815d-21e8-4b4c-b6fd-280c6d6edea1" d="M117.23,18,117,30.05l-1.84,0-6.5-8.3-.16,8.17-2.23,0,.23-12.07,1.85,0,6.5,8.3.16-8.17Z"></path><path class="b6a7815d-21e8-4b4c-b6fd-280c6d6edea1" d="M123.9,20.79l-4-.65.31-1.87,10.11,1.67-.31,1.87-4-.65-1.65,10-2.21-.36Z"></path><path class="b6a7815d-21e8-4b4c-b6fd-280c6d6edea1" d="M138.89,33l-.55,1.8-8.67-2.62,3.5-11.56,8.44,2.56-.54,1.8-6.3-1.91-.91,3,5.59,1.68-.54,1.77-5.58-1.69-1,3.19Z"></path><path class="b6a7815d-21e8-4b4c-b6fd-280c6d6edea1" d="M145.29,24.67l2.05.92-4.2,9.28,5.75,2.6-.78,1.73-7.8-3.53Z"></path><path class="b6a7815d-21e8-4b4c-b6fd-280c6d6edea1" d="M155.62,29.64l1.92,1.17-5.31,8.69,5.39,3.28-1,1.62L149.33,40Z"></path><path class="b6a7815d-21e8-4b4c-b6fd-280c6d6edea1" d="M165,35.73l1.8,1.34-7.23,9.67-1.8-1.34Z"></path><path class="b6a7815d-21e8-4b4c-b6fd-280c6d6edea1" d="M172.21,49.6l1.55,1.45-3.29,3.51a6.79,6.79,0,0,1-2.37-.65A8.58,8.58,0,0,1,166,52.45a6.87,6.87,0,0,1-1.88-2.86,5.86,5.86,0,0,1-.18-3.21,6.42,6.42,0,0,1,4.36-4.66,6,6,0,0,1,3.22,0,7,7,0,0,1,3,1.71,7.31,7.31,0,0,1,1.67,2.26,5.34,5.34,0,0,1,.52,2.49l-2,0a4.56,4.56,0,0,0-1.49-3.28,4.67,4.67,0,0,0-2-1.16,4,4,0,0,0-2.16,0,4.58,4.58,0,0,0-3,3.2,4.11,4.11,0,0,0,.1,2.17,4.59,4.59,0,0,0,1.26,1.94,5,5,0,0,0,2.24,1.25Z"></path><path class="b6a7815d-21e8-4b4c-b6fd-280c6d6edea1" d="M178.29,63.41l-1.47,1.17-5.63-7.1,9.46-7.5,5.48,6.9-1.47,1.17-4.09-5.15-2.46,2,3.63,4.57-1.45,1.15L176.67,56l-2.61,2.07Z"></path><path class="b6a7815d-21e8-4b4c-b6fd-280c6d6edea1" d="M193.83,69.6l-10.49,6-.91-1.6,3.79-9.84-7.1,4.06L178,66.28l10.48-6,.92,1.61-3.8,9.84,7.1-4.06Z"></path><path class="b6a7815d-21e8-4b4c-b6fd-280c6d6edea1" d="M185.88,80.07a6.06,6.06,0,0,1,1.26-2.95,6.22,6.22,0,0,1,2.69-1.91,6.11,6.11,0,0,1,3.28-.33,5.93,5.93,0,0,1,2.9,1.38,6.78,6.78,0,0,1,1.92,2.81,7,7,0,0,1,.47,2.72,5.61,5.61,0,0,1-.67,2.46l-1.79-.87a4.25,4.25,0,0,0,.18-3.52A4.56,4.56,0,0,0,194.83,78a4,4,0,0,0-2-.9,4.27,4.27,0,0,0-2.24.26,4.39,4.39,0,0,0-1.86,1.29,3.86,3.86,0,0,0-.86,2,4.5,4.5,0,0,0,.27,2.27,4.19,4.19,0,0,0,2.48,2.51l-.78,1.85a5.51,5.51,0,0,1-2.13-1.42,7.28,7.28,0,0,1-1.87-5.73Z"></path><path class="b6a7815d-21e8-4b4c-b6fd-280c6d6edea1" d="M192.33,98l-1.83.41-1.95-8.84L200.34,87l1.9,8.61L200.4,96,199,89.57l-3.07.68,1.26,5.69-1.81.4-1.25-5.7-3.25.72Z"></path><path class="b6a7815d-21e8-4b4c-b6fd-280c6d6edea1" d="M154.78,84.16c4.22-.29,7.89-1.5,10.76-4.49,4.37-4.55,4.52-9.79,3.58-15.46a.26.26,0,0,0-.49-.06c-4.37,9.69-11.19,16.49-22,17.57a.27.27,0,0,0-.23.2,7.72,7.72,0,0,1-1.25,3c-2.86,3.7-9.48,2.5-9.3-3.68,0-6,5-12.36,11.6-13.67a13.49,13.49,0,0,1,7.27.49.25.25,0,0,0,.34-.22c.15-2.37-.11-4-2.49-5.13a7.83,7.83,0,0,0-6,0,.27.27,0,0,1-.29-.08c-2.51-3.11-8.27-2.82-12.69-1.4a14.5,14.5,0,0,0-4.08,2,.25.25,0,0,0,.06.44c3.36,1.33.89,6-3,6.16a.28.28,0,0,0-.26.26c-.22,7.89-8.3,10.58-14.07,10.6-.11,0-.31,0-.42,0s-.31,0-.42,0c-5.77,0-13.85-2.71-14.07-10.6a.26.26,0,0,0-.25-.26c-3.86-.12-6.34-4.83-3-6.16a.26.26,0,0,0,0-.44,14.36,14.36,0,0,0-4.08-2c-4.42-1.42-10.17-1.71-12.69,1.4a.27.27,0,0,1-.29.08,8.86,8.86,0,0,0-3.76-.61l-4.14,2.1a5.71,5.71,0,0,0-.6,3.6.25.25,0,0,0,.34.22,13.52,13.52,0,0,1,7.28-.49c6.56,1.31,11.59,7.66,11.59,13.67.18,6.18-6.44,7.38-9.3,3.68a7.72,7.72,0,0,1-1.25-3,.24.24,0,0,0-.22-.2c-8.4-.84-14.39-5.12-18.7-11.52-.8.48-1.6,1-2.39,1.45-.4.81-.81,1.63-1.2,2.45a13.92,13.92,0,0,0,3.35,5.57c2.88,3,6.54,4.2,10.76,4.49a.26.26,0,0,1,.07.5c-4.19,1.56-7.82.31-11.68-1.59a.26.26,0,0,0-.37.27,25.58,25.58,0,0,0,3.56,9.07c.55.79,1,1.27,1.56,1.26a19.79,19.79,0,0,0,11.08-2.92.26.26,0,0,1,.35.37c-4.26,6.27-8.85,7.41-13.07,7.17a.26.26,0,0,0-.21.42c2.53,3.2,4.59,4.79,6.73,5.65A10.87,10.87,0,0,0,77,103.48a.25.25,0,0,1,.34.36,11.76,11.76,0,0,1-13.8,4.24.25.25,0,0,0-.32.35c3.84,8,9.57,8.07,16.95,6.15a.25.25,0,0,1,.24.43c-2.83,2.65-7.81,5-11.55,4.08a.26.26,0,0,0-.27.4c3.92,5.25,9.44,6.31,14.29,4.27a.26.26,0,0,1,.31.39c-2.15,2.76-6.24,5.53-10.18,5.39a.26.26,0,0,0-.21.42c3.48,4.35,8,4.69,12.66,3.13a.26.26,0,0,1,.3.39,13.13,13.13,0,0,1-8.65,5.13.26.26,0,0,0-.13.45c2.71,2.34,6.67,2.56,10.15,2.18a.26.26,0,0,1,.12.5l-1.83.68c-2.52.94-3.65,1.09-3.83,2-.14.73.69,3.16,1.21,4.65.32.94.73,1,1.42.85a27.92,27.92,0,0,0,7.91-3.18.26.26,0,0,1,.35.36c-1.14,1.77-4.26,3.4-6.39,4.47-1.07.54-1,.59-.65,1.37a7.07,7.07,0,0,0,2.08,2.81A7.29,7.29,0,0,0,92,157.18a6.62,6.62,0,0,0,4.38-1.58A7.77,7.77,0,0,0,98,153.78l0,0c.14-.3.83-1.69.51-.33a7,7,0,0,1-.91,1.94,15.74,15.74,0,0,1-3.23,3.46c-.94.76-.55.71.41,1.65l.7.69,0,0c2.14,1.66,3.85,2.74,5.73,2.3a3.8,3.8,0,0,0,2.2-1.52,25.4,25.4,0,0,0,2.67-5.78.26.26,0,0,1,.5.07,4.29,4.29,0,0,1-.09,1.09c-.26,1.39-2.08,4.73-2.07,6.47,0,.77.37.66,1.08.88a29.34,29.34,0,0,0,6.27.88h0a29.43,29.43,0,0,0,6.28-.88c.7-.22,1.07-.11,1.08-.88,0-1.74-1.81-5.08-2.08-6.47a4.8,4.8,0,0,1-.09-1.09.26.26,0,0,1,.5-.07,25.4,25.4,0,0,0,2.67,5.78,3.82,3.82,0,0,0,2.21,1.52c1.87.44,3.59-.64,5.73-2.3l0,0,.71-.69c1-.94,1.34-.89.4-1.65a15.74,15.74,0,0,1-3.23-3.46,6.69,6.69,0,0,1-.9-1.94c-.32-1.36.36,0,.5.33l0,0a8.26,8.26,0,0,0,1.59,1.82,6.64,6.64,0,0,0,4.38,1.58,7.27,7.27,0,0,0,4.54-1.43,7,7,0,0,0,2.08-2.81c.37-.78.42-.83-.65-1.37-2.12-1.07-5.25-2.7-6.38-4.47a.26.26,0,0,1,.34-.36,28,28,0,0,0,7.91,3.18c.7.14,1.1.09,1.42-.85.52-1.49,1.35-3.92,1.21-4.65-.18-.91-1.3-1.06-3.82-2l-1.84-.68a.26.26,0,0,1,.12-.5c3.48.38,7.44.16,10.16-2.18a.26.26,0,0,0-.14-.45,13.11,13.11,0,0,1-8.64-5.13.26.26,0,0,1,.29-.39c4.64,1.56,9.18,1.22,12.66-3.13a.26.26,0,0,0-.21-.42c-3.93.14-8-2.63-10.18-5.39a.26.26,0,0,1,.31-.39c4.85,2,10.38,1,14.29-4.27a.26.26,0,0,0-.27-.4c-3.74.93-8.72-1.43-11.55-4.08a.26.26,0,0,1,.25-.43c7.38,1.92,13.1,1.85,16.95-6.15a.25.25,0,0,0-.32-.35,11.78,11.78,0,0,1-13.81-4.24.26.26,0,0,1,.35-.36,10.87,10.87,0,0,0,10.08.88c2.14-.86,4.19-2.45,6.72-5.65a.26.26,0,0,0-.21-.42c-4.22.24-8.81-.9-13.06-7.17a.26.26,0,0,1,.34-.37,19.82,19.82,0,0,0,11.09,2.92c.53,0,1-.47,1.56-1.26a25.75,25.75,0,0,0,3.55-9.07.26.26,0,0,0-.37-.27c-3.85,1.9-7.49,3.15-11.68,1.59A.26.26,0,0,1,154.78,84.16Z"></path><path class="f84163bc-5015-44be-9934-ffa9ce8b52fa" d="M129,147.44l1.86-.89,0,0-1.15-.45c-.11.24-.23.49-.35.73S129.09,147.23,129,147.44Zm-34,0c-.12-.22-.23-.44-.34-.67s-.25-.51-.37-.77l-.69.28-.62.25Z"></path><path class="a9294399-12cf-4f52-8b68-79d29eaa6374" d="M101.58,94.67c.06,0,.09,0,.09.08V113.3c0,.06,0,.08-.09.08H95.89c-.06,0-.09,0-.09-.08V94.75a.09.09,0,0,1,.09-.08Z"></path><path class="a9294399-12cf-4f52-8b68-79d29eaa6374" d="M125.06,94.67c.06,0,.1,0,.1.09V113.3c0,.06,0,.08-.1.08h-22c-.06,0-.09,0-.09-.08V94.76q0-.09.09-.09Zm-16.43,13.61h10.88V99.79H108.63Z"></path><path class="a9294399-12cf-4f52-8b68-79d29eaa6374" d="M117.89,114.53c.06,0,.09,0,.09.08v4.94c0,.06,0,.08-.09.08H101.45v1.67h16.44q.09,0,.09.09v11.77c0,.05,0,.08-.09.08h-22c-.06,0-.09,0-.09-.08v-4.94a.08.08,0,0,1,.09-.08h16.44v-1.68H95.89c-.06,0-.09,0-.09-.08V114.61a.09.09,0,0,1,.09-.08Z"></path><path class="a9294399-12cf-4f52-8b68-79d29eaa6374" d="M125.06,114.53c.07,0,.1,0,.1.08v18.55c0,.05,0,.08-.1.08h-5.68c-.06,0-.09,0-.09-.08V114.61s0-.08.09-.08Z"></path><path class="a9294399-12cf-4f52-8b68-79d29eaa6374" d="M111.66,88.89h1.74l-1.41.94.54,1.63-1.41-1.06-1.42,1,.54-1.56-1.41-1h1.75l.54-1.66Zm-6.39-1.66-.54,1.66H103l1.41.94-.54,1.62,1.42-1,1.41,1-.54-1.58,1.42-1h-1.75Zm-5.85,0-.54,1.66H97.13l1.42.94L98,91.45l1.41-1,1.41,1-.54-1.58,1.42-1H100Z"></path><path class="a9294399-12cf-4f52-8b68-79d29eaa6374" d="M122.87,87.23l-.54,1.66h-1.75l1.41.94-.54,1.62,1.42-1,1.41,1-.54-1.58,1.42-1h-1.75Zm-5.85,0-.54,1.66h-1.75l1.42.94-.54,1.62,1.41-1,1.41,1-.54-1.58,1.42-1h-1.75Z"></path><circle class="bf6e9c2f-929c-496f-bf15-cecde81ae8b7" cx="110.27" cy="110.23" r="104.72"></circle><path class="b6a7815d-21e8-4b4c-b6fd-280c6d6edea1" d="M73.49,193.22A5.43,5.43,0,0,1,72,191.5l1.35-1.31a6,6,0,0,0,1.32,1.55,6.56,6.56,0,0,0,1.84,1.14,3.71,3.71,0,0,0,2,.35,1.31,1.31,0,0,0,1-.8,1.06,1.06,0,0,0,0-.92,2.52,2.52,0,0,0-.66-.83c-.3-.25-.72-.58-1.27-1a18,18,0,0,1-1.8-1.42,3.65,3.65,0,0,1-1-1.48,2.72,2.72,0,0,1,.14-2,3.06,3.06,0,0,1,1.17-1.46,3.54,3.54,0,0,1,2-.59,6.5,6.5,0,0,1,2.63.55,8.75,8.75,0,0,1,1.89,1.05A5.79,5.79,0,0,1,84,185.81l-1.29,1.33a6.78,6.78,0,0,0-1.25-1.26,6.22,6.22,0,0,0-1.44-.83,3.4,3.4,0,0,0-2-.32,1.36,1.36,0,0,0-1,.85,1,1,0,0,0,0,.91,2.63,2.63,0,0,0,.67.82c.3.26.72.58,1.26,1a15.8,15.8,0,0,1,1.78,1.41,3.57,3.57,0,0,1,1,1.48,2.62,2.62,0,0,1-.12,1.93,3.18,3.18,0,0,1-1.17,1.46,3.61,3.61,0,0,1-2,.57,6.36,6.36,0,0,1-2.65-.55A8.84,8.84,0,0,1,73.49,193.22Z"></path><path class="b6a7815d-21e8-4b4c-b6fd-280c6d6edea1" d="M92.44,197.6,92,199.4l-8.66-2.24,3-11.54,8.43,2.18-.46,1.79L88,188l-.77,3,5.57,1.44-.45,1.77-5.58-1.44-.82,3.18Z"></path><path class="b6a7815d-21e8-4b4c-b6fd-280c6d6edea1" d="M103.18,200.89l-2-3.74a3.26,3.26,0,0,1-.46,0l-2.67-.3-.39,3.45-2.2-.24,1.33-11.85,4.87.55a6.46,6.46,0,0,1,2.63.81,3.94,3.94,0,0,1,1.59,1.65,4.12,4.12,0,0,1,.35,2.32,4,4,0,0,1-.91,2.23,3.85,3.85,0,0,1-2,1.22l2.29,4.2Zm.26-9.47a3.43,3.43,0,0,0-2.12-.85l-2.57-.29L98.22,195l2.57.29a3.38,3.38,0,0,0,2.25-.37,2.43,2.43,0,0,0,.4-3.5Z"></path><path class="b6a7815d-21e8-4b4c-b6fd-280c6d6edea1" d="M119.36,189,114.56,201l-2.18.07-5.59-11.75,2.4-.07,4.26,9.06,3.7-9.32Z"></path><path class="b6a7815d-21e8-4b4c-b6fd-280c6d6edea1" d="M120.1,188.63l2.19-.29,1.58,11.81-2.19.29Z"></path><path class="b6a7815d-21e8-4b4c-b6fd-280c6d6edea1" d="M129.86,198.46a5.8,5.8,0,0,1-2.74-1.59,6.12,6.12,0,0,1-1.54-2.86,6,6,0,0,1,.07-3.26,5.86,5.86,0,0,1,1.71-2.67,7.24,7.24,0,0,1,5.7-1.67,5.49,5.49,0,0,1,2.34,1L134.32,189a4.16,4.16,0,0,0-3.42-.6,4.39,4.39,0,0,0-2,1,3.87,3.87,0,0,0-1.12,1.8,4.58,4.58,0,0,0,1,4.21,3.91,3.91,0,0,0,1.82,1.09,4.55,4.55,0,0,0,2.26,0,4.12,4.12,0,0,0,2.76-2.12l1.71,1a5.41,5.41,0,0,1-1.64,1.93,6.74,6.74,0,0,1-2.49,1.12A6.55,6.55,0,0,1,129.86,198.46Z"></path><path class="b6a7815d-21e8-4b4c-b6fd-280c6d6edea1" d="M148.37,191.09l.69,1.73-8.31,3.3L136.34,185l8.09-3.21.68,1.72-6,2.4,1.14,2.88,5.35-2.13.67,1.7-5.34,2.12,1.21,3.06Z"></path><path class="a9294399-12cf-4f52-8b68-79d29eaa6374" d="M91,150.47c7.39-3,12.93-4.61,18.47-4.75s11.07,1.21,18.43,4.1h0l0,0,1.12.45.5.19.74-1.71.76-1.78.07-.17,0,0v-.13l.38-.87,1-2.28c-7.9-3.61-15.12-5.41-22.34-5.41s-14.44,1.81-22.35,5.41c.52,1.16,1,2.31,1.57,3.47S90.49,149.27,91,150.47Z"></path><path class="b6a7815d-21e8-4b4c-b6fd-280c6d6edea1" d="M100.71,144.57a2,2,0,0,1-2,1.17,2.57,2.57,0,0,1-.78-.21,2.63,2.63,0,0,1-.68-.46,2,2,0,0,1-.63-1.46,2.1,2.1,0,0,1,.66-1.51,2.18,2.18,0,0,1,.79-.48,2.4,2.4,0,0,1,.64-.16,2.06,2.06,0,0,1,.56,0,1.73,1.73,0,0,1,.47.15,2.16,2.16,0,0,1,.38.27l-.28.31a1.36,1.36,0,0,0-.77-.35,1.83,1.83,0,0,0-.88.11,1.68,1.68,0,0,0-.63.39,1.6,1.6,0,0,0-.37.57,1.78,1.78,0,0,0,0,1.31,1.73,1.73,0,0,0,.38.57,1.87,1.87,0,0,0,.55.38,1.72,1.72,0,0,0,.63.16,1.56,1.56,0,0,0,.67-.09,1.7,1.7,0,0,0,.62-.4,2.09,2.09,0,0,0,.47-.71l-.21-.67c-.38.12-.58.18-1,.32l-.1-.3c.53-.19.8-.28,1.34-.44l.6,2-.35.11c-.08-.23-.11-.35-.19-.58"></path><path class="b6a7815d-21e8-4b4c-b6fd-280c6d6edea1" d="M102.71,144.64l-1-4.08.47-.12c.35,1.5.53,2.25.88,3.74,1-.23,1.48-.33,2.48-.49,0,.15,0,.22.06.37a25.42,25.42,0,0,0-2.86.58"></path><path class="b6a7815d-21e8-4b4c-b6fd-280c6d6edea1" d="M108.3,143.77a1.9,1.9,0,0,1-.83-.11,2.05,2.05,0,0,1-.7-.41,2.17,2.17,0,0,1-.5-.62,2,2,0,0,1-.26-.77,1.91,1.91,0,0,1,.06-.82,2.21,2.21,0,0,1,.38-.73,2.27,2.27,0,0,1,.67-.55,2.3,2.3,0,0,1,.88-.25,2.24,2.24,0,0,1,.94.14,2.07,2.07,0,0,1,.72.46,1.94,1.94,0,0,1,.47.67,2,2,0,0,1,.16.78,1.88,1.88,0,0,1-.15.81,2.2,2.2,0,0,1-.42.69,2.32,2.32,0,0,1-.63.49,1.9,1.9,0,0,1-.79.22m-1.84-2a1.89,1.89,0,0,0,.6,1.16,1.64,1.64,0,0,0,.55.34,1.46,1.46,0,0,0,.67.09,1.42,1.42,0,0,0,.65-.2,1.7,1.7,0,0,0,.5-.42,2,2,0,0,0,.31-.57,1.84,1.84,0,0,0,.1-.65,1.66,1.66,0,0,0-.14-.66,1.77,1.77,0,0,0-1-.91,1.75,1.75,0,0,0-.73-.1,1.56,1.56,0,0,0-.72.22,1.75,1.75,0,0,0-.52.45,1.83,1.83,0,0,0-.28.6,1.77,1.77,0,0,0,0,.65"></path><path class="b6a7815d-21e8-4b4c-b6fd-280c6d6edea1" d="M115.1,142.86a1,1,0,0,1-.15.42,1.14,1.14,0,0,1-.31.31,1.38,1.38,0,0,1-.41.18,1.22,1.22,0,0,1-.47,0c-.81-.07-1.21-.1-2-.13.06-1.68.09-2.52.14-4.2.93,0,1.4.06,2.33.15a1,1,0,0,1,.44.14,1.1,1.1,0,0,1,.32.28,1.27,1.27,0,0,1,.18.37,1.08,1.08,0,0,1,0,.4,1,1,0,0,1-.24.55,1.11,1.11,0,0,1-.53.34,1.11,1.11,0,0,1,.57.47,1,1,0,0,1,.13.69m-2.77-3c0,.62,0,.93-.07,1.55.64,0,.95,0,1.58.11a.69.69,0,0,0,.32,0,.81.81,0,0,0,.47-.37.71.71,0,0,0,.09-.28,1.06,1.06,0,0,0,0-.31.72.72,0,0,0-.14-.26.71.71,0,0,0-.23-.19.94.94,0,0,0-.31-.1c-.67-.06-1-.08-1.69-.11m2.35,2.89a.84.84,0,0,0,0-.31.68.68,0,0,0-.13-.27.74.74,0,0,0-.23-.2.63.63,0,0,0-.3-.1c-.7-.07-1-.09-1.74-.12,0,.63,0,.95-.08,1.59.65,0,1,0,1.62.11a.85.85,0,0,0,.32,0,.59.59,0,0,0,.27-.15.74.74,0,0,0,.2-.23,1,1,0,0,0,.1-.29"></path><path class="b6a7815d-21e8-4b4c-b6fd-280c6d6edea1" d="M115.84,144.07a37,37,0,0,1,2.67-3.78l.38.09a38.14,38.14,0,0,1,.82,4.55l-.44-.12c-.08-.57-.12-.85-.22-1.42-.79-.2-1.18-.29-2-.44-.32.47-.48.71-.79,1.19l-.44-.07m2.76-3.26c-.57.72-.84,1.09-1.37,1.84.72.14,1.08.22,1.8.4-.15-.9-.24-1.35-.43-2.24"></path><path class="b6a7815d-21e8-4b4c-b6fd-280c6d6edea1" d="M120.9,145.3c.52-1.6.79-2.4,1.31-4l.45.15c-.49,1.46-.74,2.18-1.24,3.63,1,.34,1.44.52,2.39.93l-.15.34a27.93,27.93,0,0,0-2.76-1"></path></g></g></svg>